# File produced by Open Asset Import Library (http://www.assimp.sf.net)
# (assimp v5.3.0)

mtllib drive.mtl

# 96 vertex positions
v -0.0652993768 4.1741674e-10 -0.0480346009
v -0.0652993843 -0.0208098199 -0.0502393208
v -0.0652993768 4.1741674e-10 -0.0543786809
v -0.0652993843 -0.0183820706 -0.044378221
v -0.0652993843 -0.0384514891 -0.0384514891
v -0.0652993843 -0.0339655802 -0.0339655802
v -0.0652993843 -0.0502393208 -0.0208098199
v -0.0652993843 -0.044378221 -0.0183820091
v -0.0652993843 -0.0543786809 0
v -0.0652993843 -0.044378221 0.0183820091
v -0.0652993843 -0.0502393208 0.0208098199
v -0.0652993843 -0.0339655802 0.0339655802
v -0.0652993843 -0.0384514891 0.0384514891
v -0.0652993843 -0.0183820706 0.044378221
v -0.0652993843 -0.0208098199 0.0502393208
v -0.0652993768 4.1741674e-10 0.0480346009
v -0.0652993768 4.1741674e-10 0.0543786809
v -0.0652993768 0.0183820091 0.044378221
v -0.0652993768 0.0208097603 0.0502393208
v -0.0652993768 0.0339655802 0.0339655802
v -0.0652993768 0.0384514891 0.0384515487
v -0.0652993768 0.044378221 0.0183820706
v -0.0652993768 0.0502393208 0.0208098199
v -0.0652993768 0.0543786809 0
v -0.0652993768 0.0480346009 0
v -0.0652993768 0.0502393208 -0.0208098199
v -0.0652993768 0.0443781614 -0.0183820706
v -0.0652993768 0.0384514891 -0.0384515487
v -0.0108001195 -0.0183820724 0.044378221
v -0.0652993768 0.0339655802 -0.0339655802
v -0.0652993768 0.0208097603 -0.0502393208
v -0.0652993768 0.0183820091 -0.044378221
v -0.11479871 0.0208097622 -0.0502393208
v -0.11479871 -0.0502393171 -0.0208098199
v -0.11479871 -0.0208098181 0.0502393208
v -0.11479871 2.58110155e-09 -0.0543786809
v -0.11479871 0.0384514928 -0.0384515487
v -0.11479871 0.0502393246 -0.0208098199
v -0.11479871 0.0543786846 0
v -0.11479871 0.0502393246 0.0208098199
v -0.11479871 0.0384514928 0.0384515487
v -0.11479871 0.0208097622 0.0502393208
v -0.11479871 2.58110155e-09 0.0543786809
v -0.11479871 -0.0384514853 0.0384514891
v -0.11479871 -0.0502393171 0.0208098199
v -0.11479871 -0.0543786772 0
v -0.11479871 -0.0384514853 -0.0384514891
v -0.11479871 -0.0208098181 -0.0502393208
v -0.0108001195 0.0282066986 0.0282067005
v -2.90572643e-07 0.036853835 0.01526534
v -0.0108001195 0.036853835 0.01526534
v -0.0108001158 0.0480345972 0
v -0.0652993843 -0.0480346009 0
v -0.0108001232 -0.0443782248 0.0183820091
v -0.0108001195 0.0339655764 0.0339655802
v -0.0108001195 0.0183820073 -0.044378221
v -0.0108001232 -0.0443782248 -0.0183820091
v -0.0108001195 -1.9648223e-09 0.0480346009
v -0.0108001195 -0.0183820724 -0.044378221
v -0.0108001158 0.0443781577 -0.0183820706
v -0.0108001195 -0.0339655839 0.0339655802
v -0.0108001158 0.0443782173 0.0183820706
v -0.0108001195 -1.9648223e-09 -0.0480346009
v -0.0108001232 -0.0480346046 0
v -0.0108001195 0.0183820073 0.044378221
v -0.0108001195 0.0339655764 -0.0339655802
v -0.0108001195 -0.0339655839 -0.0339655802
v -0.0108001195 -0.0152653418 -0.0368538387
v -0.0108001195 -1.9648223e-09 -0.0398902819
v -0.0108001195 -0.0368538424 -0.01526534
v -0.0108001195 -0.0282067023 -0.0282067005
v -0.0108001195 -0.0398902856 0
v -0.0108001195 -0.0368538424 0.01526534
v -0.0108001195 -0.0152653418 0.0368538387
v -0.0108001195 -0.0282067023 0.0282067005
v -0.0108001195 0.0152653381 0.0368538387
v -0.0108001195 -1.9648223e-09 0.0398902819
v -0.0108001195 0.036853835 -0.01526534
v -0.0108001195 0.0398902781 0
v -0.0108001195 0.0152653381 -0.0368538387
v -0.0108001195 0.0282066986 -0.0282067005
v -2.90572643e-07 0.0282066986 0.0282067005
v -2.90572643e-07 -0.0282067023 0.0282067005
v -2.90572643e-07 -0.0282067023 -0.0282067005
v -2.90572643e-07 -0.0398902856 0
v -2.90572643e-07 0.0398902781 0
v -2.90572643e-07 -0.0368538424 0.01526534
v -2.90572643e-07 0.036853835 -0.01526534
v -2.90572643e-07 0.0282066986 -0.0282067005
v -2.90572643e-07 -0.0152653428 0.0368538387
v -2.90572643e-07 0.0152653372 -0.0368538387
v -2.90572643e-07 -2.43689779e-09 0.0398902819
v -2.90572643e-07 -0.0152653428 -0.0368538387
v -2.90572643e-07 -2.43689779e-09 -0.0398902819
v -2.90572643e-07 0.0152653372 0.0368538387
v -2.90572643e-07 -0.0368538424 -0.01526534

# 204 UV coordinates
vt 0.0216206294 0.152760893 0
vt 0 0.222186506 0
vt 0 0.148460299 0
vt 0.0216206294 0.217885897 0
vt 0.0282137897 0.290300608 0
vt 0.0465428792 0.278053492 0
vt 0.0803461 0.342432886 0
vt 0.0925931931 0.324103802 0
vt 0.148460299 0.370646685 0
vt 0.217885897 0.349026114 0
vt 0.222186506 0.370646685 0
vt 0.278053492 0.324103802 0
vt 0.290300608 0.342432886 0
vt 0.324103802 0.278053492 0
vt 0.342432886 0.290300608 0
vt 0.349026114 0.217885807 0
vt 0.370646685 0.222186401 0
vt 0.349026114 0.152760893 0
vt 0.370646685 0.148460194 0
vt 0.324103802 0.0925931931 0
vt 0.342432886 0.0803461 0
vt 0.278053492 0.0465428792 0
vt 0.290300608 0.0282137897 0
vt 0.222186401 0 0
vt 0.217885807 0.0216206294 0
vt 0.148460194 0 0
vt 0.152760804 0.0216206294 0
vt 0.0803459808 0.0282138493 0
vt 0.874707401 0.452251405 0
vt 0.814539671 0.64162451 0
vt 0.814539671 0.452251405 0
vt 0.0925930664 0.0465429388 0
vt 0.0282137301 0.0803462192 0
vt 0.04654276 0.0925933123 0
vt 0.0282137301 0.660947204 0
vt 0.0803461 0.398860514 0
vt 0.342432886 0.450992793 0
vt 0.642540276 0.851579189 0
vt 0.81453979 0.903711379 0
vt 0.642540276 0.903711379 0
vt 0.81453979 0.783465028 0
vt 0.642540276 0.783465028 0
vt 0.81453979 0.709738672 0
vt 0.642540276 0.709738672 0
vt 0.81453979 0.641624629 0
vt 0.642540276 0.641624629 0
vt 0.642540276 0.379537791 0
vt 0.81453979 0.327405512 0
vt 0.81453979 0.379537791 0
vt 0.642540276 0.447651893 0
vt 0.81453979 0.447651893 0
vt 0.642540276 0.521378219 0
vt 0.81453979 0.521378219 0
vt 0.642540276 0.589492321 0
vt 0.81453979 0.589492321 0
vt 0.814539671 0.709738672 0
vt 0.986539185 0.641624629 0
vt 0.986539185 0.709738672 0
vt 0.814539671 0.783464909 0
vt 0.986539185 0.783464909 0
vt 0.814539671 0.85157913 0
vt 0.986539185 0.85157913 0
vt 0.870051622 0.193972707 0
vt 0.698052227 0.262086809 0
vt 0.698052227 0.193972707 0
vt 0.870051622 0.120246403 0
vt 0.698052227 0.120246403 0
vt 0.870051622 0.052132301 0
vt 0.698052227 0.052132301 0
vt 0.870051622 0 0
vt 0.698052227 0 0
vt 0.907578826 0.0499662086 0
vt 0.907578826 0 0
vt 0.642540276 0.876860082 0
vt 0.453167289 0.830809772 0
vt 0.642540276 0.830809772 0
vt 1 0.452251405 0
vt 0.93983233 0.64162451 0
vt 0.939832389 0.452251405 0
vt 0.189373106 0.866586089 0
vt 0 0.801461101 0
vt 0.189373106 0.801461101 0
vt 0.642540276 0.705517113 0
vt 0.453167289 0.645349383 0
vt 0.642540276 0.645349383 0
vt 0.378746212 0.866586089 0
vt 0.378746212 0.801461101 0
vt 0.189373106 0.972804129 0
vt 0 0.9267537 0
vt 0.189373106 0.9267537 0
vt 0.378746212 0.972804129 0
vt 0.189373106 0.926753819 0
vt 0.378746212 0.926753819 0
vt 0.453167289 0.770642102 0
vt 0.642540276 0.770642102 0
vt 0.874707401 0.64162451 0
vt 0 0.741293371 0
vt 0.189373106 0.741293371 0
vt 0.453167289 0.599299073 0
vt 0.642540276 0.599299073 0
vt 0.378746212 0.741293371 0
vt 0 0.866586089 0
vt 0.453167289 0.705517113 0
vt 0.457341701 0.0484525487 0
vt 0.501787007 0 0
vt 0.507308006 0.0277559105 0
vt 0.395568997 0.0709725618 0
vt 0.441619307 0.0249221902 0
vt 0.398402601 0.136661202 0
vt 0.419099301 0.086695008 0
vt 0.398402601 0.190744206 0
vt 0.370646685 0.131140202 0
vt 0.419099301 0.240710393 0
vt 0.370646685 0.196265206 0
vt 0.441619188 0.302483201 0
vt 0.395568907 0.256432801 0
vt 0.507307887 0.299649507 0
vt 0.457341701 0.278952807 0
vt 0.566911817 0.327405512 0
vt 0.501786888 0.327405512 0
vt 0.611356974 0.278952897 0
vt 0.561390877 0.299649507 0
vt 0.673129916 0.25643301 0
vt 0.627079487 0.30248329 0
vt 0.670296311 0.190744206 0
vt 0.649599612 0.240710393 0
vt 0.698052227 0.131140202 0
vt 0.698052227 0.196265206 0
vt 0.649599612 0.086695008 0
vt 0.670296311 0.136661202 0
vt 0.627079606 0.0249221902 0
vt 0.673129916 0.0709725618 0
vt 0.561390877 0.0277559105 0
vt 0.611357093 0.0484525487 0
vt 0.566911876 0 0
vt 0.429585904 0.348102093 0
vt 0.621843576 0.386344612 0
vt 0.583601177 0.578602374 0
vt 0.870051622 0.334549487 0
vt 0.907578826 0.384515703 0
vt 0.870051622 0.384515703 0
vt 0.4531672 0.829799414 0
vt 0.415640086 0.791557014 0
vt 0.4531672 0.791557014 0
vt 0.852066875 0.452251405 0
vt 0.814539671 0.402285188 0
vt 0.852066875 0.402285188 0
vt 0.415640086 0.741590679 0
vt 0.4531672 0.741590679 0
vt 0.814539671 0.348202199 0
vt 0.852066875 0.348202199 0
vt 0.415640086 0.687507808 0
vt 0.4531672 0.687507808 0
vt 0.814539671 0.298236012 0
vt 0.852066875 0.298236012 0
vt 0.415640086 0.637541473 0
vt 0.4531672 0.637541473 0
vt 0.907578826 0.192257807 0
vt 0.870051622 0.154015407 0
vt 0.907578826 0.154015407 0
vt 0.870051622 0.192257807 0
vt 0.907578826 0.230500296 0
vt 0.870051622 0.230500296 0
vt 0.415640086 0.599299073 0
vt 0.4531672 0.599299073 0
vt 0.870051622 0.104049198 0
vt 0.907578826 0.104049198 0
vt 0.907578826 0.280466497 0
vt 0.870051622 0.280466497 0
vt 0.870051622 0.0499662086 0
vt 0.907578826 0.334549487 0
vt 0.152760893 0.349026114 0
vt 0 0.592833221 0
vt 0 0.519106925 0
vt 0.0282137897 0.450992793 0
vt 0.290300608 0.398860514 0
vt 0.370646685 0.519106984 0
vt 0.370646685 0.592833221 0
vt 0.342432886 0.660947323 0
vt 0.290300608 0.713079572 0
vt 0.222186401 0.741293371 0
vt 0.148460194 0.741293371 0
vt 0.0803459808 0.713079572 0
vt 0.81453979 0.851579189 0
vt 0.642540276 0.327405512 0
vt 0.814539671 0.641624629 0
vt 0.870051622 0.262086809 0
vt 0.453167289 0.876860082 0
vt 1 0.64162451 0
vt 0 0.972804129 0
vt 0.53363502 0.599299073 0
vt 0.479552001 0.599299073 0
vt 0.429585904 0.578602493 0
vt 0.391343415 0.540359974 0
vt 0.370646685 0.490393788 0
vt 0.370646685 0.436310798 0
vt 0.391343415 0.386344612 0
vt 0.479552001 0.327405512 0
vt 0.53363502 0.327405512 0
vt 0.583601177 0.348102212 0
vt 0.642540276 0.436310798 0
vt 0.642540276 0.490393788 0
vt 0.621843576 0.540359974 0
vt 0.415640086 0.829799414 0

# 108 vertex normals
vn 1 -4.37113989e-08 -9.89997034e-07
vn 1 -2.39447417e-07 -5.90880006e-07
vn 1 -4.37113989e-08 -9.84891017e-07
vn 1 -2.49307391e-07 -5.42511998e-07
vn 1 -3.60661375e-07 -4.15220029e-07
vn 1 -4.09439394e-07 -4.15220029e-07
vn 1 -6.54211419e-07 -2.24716004e-07
vn 1 -6.82312418e-07 -2.24716004e-07
vn 1 -5.55108386e-07 0
vn 1 -6.21526397e-07 2.24716004e-07
vn 1 -6.43447436e-07 2.24716004e-07
vn 1 -5.02012426e-07 4.15220029e-07
vn 1 -4.95603388e-07 4.15220029e-07
vn 1 -2.21128388e-07 5.42511998e-07
vn 1 -2.17943409e-07 5.42511998e-07
vn 1 -4.37113989e-08 5.87209968e-07
vn 1 2.17340585e-07 5.42511998e-07
vn 1 2.2133861e-07 5.42511998e-07
vn 1 4.99709586e-07 4.15220029e-07
vn 1 4.59148623e-07 4.15220029e-07
vn 1 4.17877601e-07 2.24716004e-07
vn 1 3.83414601e-07 2.24716004e-07
vn 1 5.33983609e-07 0
vn 1 5.30268608e-07 0
vn 1 4.56296618e-07 -2.24714995e-07
vn 1 4.5754058e-07 -2.24716004e-07
vn 1 4.68600604e-07 -4.15220029e-07
vn -3.09086303e-08 -0.707106829 0.707106829
vn -1.67276362e-08 -0.382683605 0.923879623
vn 1 4.72356589e-07 -4.15220029e-07
vn 1 -4.37113989e-08 -5.6820204e-07
vn 1 7.95426018e-08 -6.01432987e-07
vn -1 4.37113989e-08 0
vn 1.67276131e-08 0.382683098 -0.923879683
vn -7.1873778e-15 -1.64428002e-07 -1
vn -5.9190044e-15 -1.35411e-07 -1
vn 3.09086232e-08 0.707106709 -0.707106888
vn 3.09086126e-08 0.707106471 -0.707107127
vn 4.03840694e-08 0.923879623 -0.382683486
vn 4.03840588e-08 0.923879385 -0.382683903
vn 4.37113989e-08 1 0
vn 4.37113989e-08 1 -2.22461011e-07
vn 4.03840659e-08 0.923879504 0.382683486
vn 4.03840694e-08 0.923879623 0.382683605
vn 3.09086232e-08 0.707106709 0.707107008
vn 3.09086126e-08 0.707106471 0.707107127
vn 1.67276166e-08 0.382683188 0.923879683
vn -8.03293098e-15 -1.83771988e-07 1
vn -7.61015396e-15 -1.74099995e-07 1
vn -1.67276308e-08 -0.382683486 0.923879504
vn -4.03840659e-08 -0.923879504 0.382683486
vn -4.37113989e-08 -1 0
vn -4.03840694e-08 -0.923879623 -0.382683486
vn -3.09086303e-08 -0.707106829 -0.707106829
vn -3.09086232e-08 -0.707106709 -0.707106888
vn -1.67276308e-08 -0.382683486 -0.923879504
vn -1.67276308e-08 -0.382683486 -0.923879623
vn 4.37113989e-08 1 -4.15906015e-07
vn 4.37113989e-08 1 1.25739007e-07
vn -4.03840659e-08 -0.923879504 0.382683605
vn 1.67276166e-08 0.382683188 0.923879802
vn 3.09086232e-08 0.707106709 -0.707107008
vn 1.67276131e-08 0.382683098 -0.923879802
vn 1.67276166e-08 0.382683188 -0.923879802
vn -4.03840659e-08 -0.923879504 -0.382683486
vn -8.24431906e-15 -1.88607999e-07 1
vn -8.66714012e-15 -1.98281001e-07 1
vn -6.5531695e-15 -1.49919003e-07 -1
vn -1.67276362e-08 -0.382683605 -0.923879623
vn 4.03840694e-08 0.923879623 -0.382683396
vn -7.39876673e-15 -1.69264013e-07 -1
vn 1 -4.37113989e-08 0
vn 1 1.16155604e-07 0
vn 1 1.90381613e-07 0
vn 1 -1.66993402e-07 0
vn 1 -2.40162393e-07 0
vn 1 -5.1189744e-07 0
vn 1 -2.70983406e-07 0
vn 1 -5.11898406e-07 0
vn 1 -2.28634406e-07 0
vn 1 -3.63445395e-07 0
vn 1 7.95706114e-08 0
vn 1 2.48113622e-07 0
vn 1 1.46976603e-07 0
vn 4.37113989e-08 1 -2.32133004e-07
vn 4.37113989e-08 1 -2.12789018e-07
vn 4.03840694e-08 0.923879623 -0.382683307
vn -3.09086303e-08 -0.707106888 0.707106829
vn 3.09086197e-08 0.70710659 -0.707107127
vn 3.0908609e-08 0.707106411 -0.707107186
vn 1.67276095e-08 0.382683009 -0.923879802
vn 1.67276042e-08 0.38268289 -0.923879802
vn 0 -0 1
vn -1.16266207e-14 -2.65986017e-07 -1
vn -1.03582465e-14 -2.36969001e-07 -1
vn 1.6727622e-08 0.382683307 0.923879683
vn 1.67276131e-08 0.382683098 0.923879683
vn -3.09086303e-08 -0.707106888 -0.707106709
vn 3.09086197e-08 0.70710659 0.707107008
vn -4.03840694e-08 -0.923879623 -0.382683396
vn 1 -5.09018435e-07 0
vn -1 -1.30777858e-06 0
vn -1 1.39519148e-06 -0
vn -1 -1.85621602e-07 0
vn -1 -6.32030606e-07 0
vn 1 2.59072607e-07 0
vn 1 -1.29946136e-06 0
vn 1 -2.23104408e-07 0

# Mesh 'Cylinder-mesh' with 188 faces
g Cylinder-mesh
usemtl drive
f  1/1/1 2/2/2 3/3/3
f  4/4/4 5/5/5 2/2/2
f  6/6/6 7/7/7 5/5/5
f  8/8/8 9/9/9 7/7/7
f  9/9/9 10/10/10 11/11/11
f  11/11/11 12/12/12 13/13/13
f  13/13/13 14/14/14 15/15/15
f  15/15/15 16/16/16 17/17/16
f  17/17/16 18/18/17 19/19/18
f  19/19/18 20/20/19 21/21/20
f  21/21/20 22/22/21 23/23/22
f  22/22/21 24/24/23 23/23/22
f  25/25/24 26/26/25 24/24/23
f  27/27/26 28/28/27 26/26/25
f  12/29/28 29/30/29 14/31/29
f  30/32/30 31/33/31 28/28/27
f  32/34/32 3/3/3 31/33/31
f  33/35/33 34/36/33 35/37/33
f  33/38/34 3/39/35 36/40/36
f  28/41/37 33/38/34 37/42/38
f  26/43/39 37/42/38 38/44/40
f  24/45/41 38/44/40 39/46/42
f  23/47/43 39/48/42 40/49/44
f  21/50/45 40/49/44 41/51/46
f  19/52/47 41/51/46 42/53/47
f  17/54/48 42/53/47 43/55/49
f  15/46/29 43/55/49 35/45/50
f  13/56/28 35/57/50 44/58/28
f  11/59/51 44/58/28 45/60/51
f  9/61/52 45/60/51 46/62/52
f  7/63/53 46/64/52 34/65/53
f  5/66/54 34/65/53 47/67/55
f  2/68/56 47/67/55 48/69/57
f  3/70/35 48/69/57 36/71/36
f  49/72/46 50/70/44 51/73/43
f  22/74/44 52/75/58 25/76/59
f  53/77/52 54/78/60 10/79/60
f  18/80/61 55/81/46 20/82/45
f  30/83/62 56/84/63 32/85/64
f  6/86/54 57/82/65 8/87/65
f  14/88/29 58/89/66 16/90/67
f  1/91/68 59/92/56 4/93/69
f  25/76/59 60/94/40 27/95/70
f  10/79/60 61/96/28 12/29/28
f  20/82/45 62/97/43 22/98/44
f  32/85/64 63/99/71 1/100/68
f  8/87/65 64/98/52 53/101/52
f  16/90/67 65/102/61 18/80/61
f  27/95/70 66/103/38 30/83/62
f  4/93/69 67/80/54 6/86/54
f  68/104/72 63/105/72 69/106/72
f  68/104/72 67/107/73 59/108/72
f  70/109/72 67/107/73 71/110/74
f  72/111/72 57/112/72 70/109/72
f  73/113/72 64/114/75 72/111/72
f  73/113/72 61/115/76 54/116/72
f  74/117/72 61/115/76 75/118/77
f  74/117/72 58/119/78 29/120/72
f  76/121/72 58/119/78 77/122/79
f  76/121/72 55/123/80 65/124/72
f  51/125/72 55/123/80 49/126/72
f  51/125/72 52/127/81 62/128/72
f  78/129/72 52/127/81 79/130/77
f  78/129/72 66/131/82 60/132/72
f  80/133/83 66/131/82 81/134/72
f  69/106/72 56/135/84 80/133/83
f  82/136/72 83/137/72 84/138/72
f  70/139/53 85/140/52 72/141/52
f  51/142/43 86/143/85 79/144/86
f  72/145/52 87/146/60 73/147/51
f  79/144/86 88/148/87 78/149/39
f  73/147/51 83/150/28 75/151/88
f  78/149/39 89/152/89 81/153/90
f  75/151/88 90/154/29 74/155/29
f  81/153/90 91/156/91 80/157/92
f  74/158/29 92/159/93 77/160/93
f  69/161/94 93/162/57 68/163/56
f  80/157/92 94/164/95 69/165/94
f  77/160/93 95/166/96 76/167/97
f  68/163/56 84/168/54 71/169/98
f  76/167/97 82/170/99 49/72/46
f  71/169/98 96/171/100 70/139/53
f  1/1/1 4/4/4 2/2/2
f  4/4/4 6/6/6 5/5/5
f  6/6/6 8/8/8 7/7/7
f  8/8/8 53/172/101 9/9/9
f  9/9/9 53/172/101 10/10/10
f  11/11/11 10/10/10 12/12/12
f  13/13/13 12/12/12 14/14/14
f  15/15/15 14/14/14 16/16/16
f  17/17/16 16/16/16 18/18/17
f  19/19/18 18/18/17 20/20/19
f  21/21/20 20/20/19 22/22/21
f  22/22/21 25/25/24 24/24/23
f  25/25/24 27/27/26 26/26/25
f  27/27/26 30/32/30 28/28/27
f  12/29/28 61/96/28 29/30/29
f  30/32/30 32/34/32 31/33/31
f  32/34/32 1/1/1 3/3/3
f  33/35/33 36/173/33 48/174/33
f  48/174/33 47/175/102 34/36/33
f  34/36/33 46/9/103 45/11/104
f  45/11/104 44/176/33 35/37/33
f  35/37/33 43/177/33 42/178/33
f  42/178/33 41/179/33 40/180/33
f  40/180/33 39/181/103 38/182/33
f  38/182/33 37/183/105 33/35/33
f  33/35/33 48/174/33 34/36/33
f  34/36/33 45/11/104 35/37/33
f  35/37/33 42/178/33 40/180/33
f  40/180/33 38/182/33 35/37/33
f  38/182/33 33/35/33 35/37/33
f  33/38/34 31/184/34 3/39/35
f  28/41/37 31/184/34 33/38/34
f  26/43/39 28/41/37 37/42/38
f  24/45/41 26/43/39 38/44/40
f  23/47/43 24/185/41 39/48/42
f  21/50/45 23/47/43 40/49/44
f  19/52/47 21/50/45 41/51/46
f  17/54/48 19/52/47 42/53/47
f  15/46/29 17/54/48 43/55/49
f  13/56/28 15/186/29 35/57/50
f  11/59/51 13/56/28 44/58/28
f  9/61/52 11/59/51 45/60/51
f  7/63/53 9/187/52 46/64/52
f  5/66/54 7/63/53 34/65/53
f  2/68/56 5/66/54 47/67/55
f  3/70/35 2/68/56 48/69/57
f  49/72/46 82/170/99 50/70/44
f  22/74/44 62/188/43 52/75/58
f  53/77/52 64/189/52 54/78/60
f  18/80/61 65/102/61 55/81/46
f  30/83/62 66/103/38 56/84/63
f  6/86/54 67/80/54 57/82/65
f  14/88/29 29/190/29 58/89/66
f  1/91/68 63/88/71 59/92/56
f  25/76/59 52/75/58 60/94/40
f  10/79/60 54/78/60 61/96/28
f  20/82/45 55/81/46 62/97/43
f  32/85/64 56/84/63 63/99/71
f  8/87/65 57/82/65 64/98/52
f  16/90/67 58/89/66 65/102/61
f  27/95/70 60/94/40 66/103/38
f  4/93/69 59/92/56 67/80/54
f  68/104/72 59/108/72 63/105/72
f  68/104/72 71/110/74 67/107/73
f  70/109/72 57/112/72 67/107/73
f  72/111/72 64/114/75 57/112/72
f  73/113/72 54/116/72 64/114/75
f  73/113/72 75/118/77 61/115/76
f  74/117/72 29/120/72 61/115/76
f  74/117/72 77/122/79 58/119/78
f  76/121/72 65/124/72 58/119/78
f  76/121/72 49/126/72 55/123/80
f  51/125/72 62/128/72 55/123/80
f  51/125/72 79/130/77 52/127/81
f  78/129/72 60/132/72 52/127/81
f  78/129/72 81/134/72 66/131/82
f  80/133/83 56/135/84 66/131/82
f  69/106/72 63/105/72 56/135/84
f  84/138/72 93/191/72 94/192/72
f  94/192/72 91/193/72 89/194/72
f  89/194/72 88/195/72 86/196/106
f  86/196/106 50/197/72 82/136/72
f  82/136/72 95/198/72 92/199/72
f  92/199/72 90/200/72 83/137/72
f  83/137/72 87/201/107 85/202/108
f  85/202/108 96/203/107 84/138/72
f  84/138/72 94/192/72 89/194/72
f  89/194/72 86/196/106 82/136/72
f  82/136/72 92/199/72 83/137/72
f  83/137/72 85/202/108 84/138/72
f  84/138/72 89/194/72 82/136/72
f  70/139/53 96/171/100 85/140/52
f  51/142/43 50/204/44 86/143/85
f  72/145/52 85/31/52 87/146/60
f  79/144/86 86/143/85 88/148/87
f  73/147/51 87/146/60 83/150/28
f  78/149/39 88/148/87 89/152/89
f  75/151/88 83/150/28 90/154/29
f  81/153/90 89/152/89 91/156/91
f  74/158/29 90/161/29 92/159/93
f  69/161/94 94/158/95 93/162/57
f  80/157/92 91/156/91 94/164/95
f  77/160/93 92/159/93 95/166/96
f  68/163/56 93/162/57 84/168/54
f  76/167/97 95/166/96 82/170/99
f  71/169/98 84/168/54 96/171/100

