# File produced by Open Asset Import Library (http://www.assimp.sf.net)
# (assimp v5.3.0)

mtllib hip.mtl

# 34 vertex positions
v -7.93119526e-09 0.0379994549 0.0259996559
v 4.0371102e-09 -0.0379995108 -0.00599991903
v -2.19342056e-09 -0.037999507 0.0259996038
v 0.0855954736 0.0271421671 0.0127790645
v 0.0855954811 -0.0271421522 0.0127790682
v 0.101647697 -0.00731920311 0.00847788621
v 0.0345156752 -0.037999507 -0.00599991251
v 0.0855954811 -0.0271421541 -0.00599990319
v 0.00799989514 0.0379994512 -0.00599992322
v 0.034515664 0.0379994586 0.0259996038
v 0.0345156714 0.0379994549 -0.0059999181
v 0.00799989514 -0.037999507 0.0259996057
v 0.00799990073 -0.0379995108 -0.00599991763
v 0.0969461203 -0.0199228432 -0.00599990133
v 0.101647697 -0.00731920404 -0.00599990133
v 0.0969461203 -0.0199228432 0.00973763037
v 0.101647697 0.00731921894 0.00847788434
v 0.0969461203 0.0199228581 -0.00599990413
v 0.0969461203 0.0199228581 0.00973768719
v 0.0855954811 0.0271421652 -0.00599990692
v 0.101647697 0.00731921801 -0.00599990226
v 0.00799988862 0.0379994549 0.0259996578
v 0.0345156081 -0.0379995033 0.0259996112
v -1.70065217e-09 0.0379994512 -0.00599992462
v 0.00799990352 -0.0251448117 -0.0249702856
v 0.00799990259 -1.66093217e-09 -0.0299996082
v 0.0079998998 0.0251449887 -0.0249707606
v 9.38980893e-10 0.0379994512 -0.0195568744
v 0.00799989793 0.0379994512 -0.0195568725
v 6.67655797e-09 -0.0379995108 -0.019555917
v 0.00799990352 -0.0379995108 -0.0195559151
v 6.76027057e-09 -0.0251448117 -0.0249702875
v 5.84113424e-09 -2.26490759e-09 -0.02999961
v 2.96358782e-09 0.0251449887 -0.0249707624

# 80 UV coordinates
vt 0.291334212 0.930015624 0
vt 0.124856897 0.534633577 0
vt 0.291334212 0.534633577 0
vt 0.338897705 0.0851058885 0
vt 0.0564842187 0.0851058885 0
vt 0.159610704 0 0
vt 0.701166213 0.935908794 0
vt 0.798864424 0.664661407 0
vt 0.798864424 0.935908794 0
vt 0.561859071 0.958869874 0
vt 0.395381898 0.822540283 0
vt 0.561859071 0.822532713 0
vt 0.632387221 0.528330326 0
vt 0.798864424 0.487198412 0
vt 0.798864424 0.528330326 0
vt 0.464160889 0.551292419 0
vt 0.366653889 0.676359177 0
vt 0.291333705 0.741930008 0
vt 0.291333705 0.676359177 0
vt 0.716989517 1 0
vt 0.798864424 1 0
vt 0.366653889 0.60020262 0
vt 0.291333705 0.534633577 0
vt 0.373208106 0.534633577 0
vt 0.479984313 0.487197906 0
vt 0.561859071 0.551292419 0
vt 0.291333705 0.60020262 0
vt 0.395381898 0.493164092 0
vt 0 0.355712891 0
vt 0.395381898 0.355712891 0
vt 0.395381898 0.534629822 0
vt 0 0.493164092 0
vt 0.632387221 0.664661407 0
vt 0.561859071 1 0
vt 0.395381898 0.958869874 0
vt 0.734279573 0.403686494 0
vt 0.55499649 0.487197906 0
vt 0.45186621 0.403687507 0
vt 0.889454901 0.0668754503 0
vt 0.915619373 0.197688997 0
vt 0.790762424 0 0
vt 0.911007285 0.554073274 0
vt 0.869387925 0.487197906 0
vt 0.911007285 0.487197906 0
vt 0.632387221 1 0
vt 0.86938858 0.487198412 0
vt 0.86938858 0.528330326 0
vt 0.911007285 0.882579803 0
vt 0.869387925 0.815704405 0
vt 0.911007285 0.815704405 0
vt 0.869387925 0.684886873 0
vt 0.911007285 0.684886873 0
vt 0.869387925 0.554073274 0
vt 0.0261630993 0.863140106 0
vt 0 0.732322693 0
vt 0.124856897 0.930015624 0
vt 0.301338196 0.0249252301 0
vt 0.235767305 0 0
vt 0.0940437317 0.0249252301 0
vt 0.632387221 0.487198412 0
vt 0.373208106 0.741930008 0
vt 0.561859071 0.487197906 0
vt 0 0.534629822 0
vt 0.395381898 1 0
vt 0.790763915 0.137946993 0
vt 0.696720123 0.462738007 0
vt 0.631149292 0.487197906 0
vt 0.489425689 0.462738007 0
vt 0.395381898 0.137946993 0
vt 0.395381898 0 0
vt 0.790763915 0 0
vt 0.861291885 0.395381898 0
vt 0.790762424 0.395381898 0
vt 0.889457226 0.3285065 0
vt 0.861287117 0 0
vt 0.632387221 0.958869874 0
vt 0.869387925 0.882579803 0
vt 0.0543327294 0.534633577 0
vt 0.0261649992 0.601509094 0
vt 0.0543270111 0.930015624 0

# 58 vertex normals
vn -1 -7.54979013e-08 -1.94706999e-07
vn 0.258819133 9.24656902e-08 0.965925872
vn 0.207911879 -0.978147626 1.14329978e-07
vn 4.73311104e-07 1 -7.54977947e-08
vn 4.90228899e-07 -1 7.54979794e-08
vn 0.207911521 0.978147626 1.05965754e-07
vn 0.936932683 -0.349509746 2.08814612e-07
vn 0.53667146 -0.843791246 1.68198142e-07
vn 0.936932683 0.349510074 1.56040088e-07
vn 0.53667146 0.843791485 4.07892173e-08
vn 1 -4.33474099e-07 1.94707042e-07
vn 1.60330131e-08 -6.13170883e-08 1
vn 3.81250089e-08 7.54979155e-08 1
vn 7.54979013e-08 -1 7.54979013e-08
vn -9.85008e-07 1 -7.54980789e-08
vn 1.23409905e-08 -7.54979155e-08 -1
vn 1 -1.18600106e-07 5.35490159e-08
vn -7.51983151e-08 0.388143837 -0.921598792
vn -7.54979013e-08 1 -7.54979013e-08
vn -7.66120081e-07 -1 7.54977378e-08
vn -1.98892337e-07 -0.388170451 -0.921587706
vn 2.05732761e-07 -0.196128979 -0.980578184
vn -6.76938328e-08 0.196111128 -0.98058182
vn -1 5.52901227e-08 -5.7113013e-08
vn -1 -7.54978942e-08 -7.54979936e-08
vn 0.258817732 9.2465605e-08 0.96592623
vn 0.25056541 9.20066725e-08 0.968099773
vn 0.250565231 -1.9831036e-07 0.968099833
vn 0.258818924 9.24656689e-08 0.965925932
vn 0.258819222 -1.468063e-07 0.965925872
vn 0.207911775 -0.978147626 3.92993968e-07
vn -8.34013122e-07 -1 7.54977236e-08
vn 0.207911626 0.978147626 2.04056761e-07
vn 0.936932802 -0.349509746 2.08814626e-07
vn 0.536671579 -0.843791366 -5.21348156e-08
vn 0.936932802 0.349509954 1.35154005e-06
vn 1.60329989e-08 7.54979155e-08 1
vn -1.98907117e-07 -1 7.54978444e-08
vn 2.81037103e-07 1 -7.54978302e-08
vn 1.44099488e-09 -7.54979155e-08 -1
vn -4.77599826e-09 -7.54979155e-08 -1
vn -1.68170118e-08 -7.54979155e-08 -1
vn 3.33480017e-08 -7.54979155e-08 -1
vn -3.24899929e-09 -7.54979155e-08 -1
vn 1.5290027e-09 -7.54979155e-08 -1
vn 1 -1.27508116e-07 -5.58019764e-08
vn 1 -9.60641202e-08 3.22900462e-09
vn 1 -5.92221241e-08 5.35550129e-08
vn 1 -8.37631333e-08 -1.39325024e-07
vn -1.10686301e-07 0.388143837 -0.921598911
vn 1.56338103e-07 1 -7.54978586e-08
vn 1.14896795e-06 -1 7.54981073e-08
vn -5.20733749e-08 -0.388170451 -0.921587706
vn -2.90817241e-07 -0.196129069 -0.980578184
vn 1.7612011e-07 0.196111321 -0.980581701
vn -1 -7.54978871e-08 -1.58949973e-08
vn -1 -7.54978871e-08 -8.97799168e-09
vn -1 -7.54978871e-08 -3.89809998e-08

# Mesh 'Hip_Mesh_002-mesh' with 64 faces
g Hip_Mesh_002-mesh
usemtl hip
f  1/1/1 2/2/1 3/3/1
f  4/4/2 5/5/2 6/6/2
f  5/7/3 7/8/3 8/9/3
f  9/10/4 10/11/4 11/12/4
f  12/13/5 2/14/5 13/15/5
f  4/16/6 11/12/6 10/11/6
f  6/17/7 14/18/7 15/19/7
f  16/20/8 8/9/8 14/21/8
f  17/22/9 18/23/9 19/24/9
f  19/25/10 20/26/10 4/16/10
f  17/22/11 15/19/11 21/27/11
f  22/28/12 23/29/12 10/30/12
f  1/31/13 12/32/13 22/28/13
f  23/33/14 13/15/14 7/8/14
f  24/34/15 22/35/15 9/10/15
f  20/36/16 15/37/16 8/38/16
f  25/39/17 26/40/17 13/41/17
f  27/42/18 28/43/18 29/44/18
f  9/10/19 28/45/19 24/34/19
f  13/15/20 30/46/20 31/47/20
f  31/48/21 32/49/21 25/50/21
f  25/50/22 33/51/22 26/52/22
f  26/52/23 34/53/23 27/42/23
f  34/54/24 33/55/24 24/56/24
f  1/1/25 24/56/25 2/2/25
f  19/57/26 4/4/26 17/58/26
f  4/4/27 10/30/27 5/5/27
f  10/30/28 23/29/28 5/5/28
f  5/5/29 16/59/29 6/6/29
f  6/6/30 17/58/30 4/4/30
f  5/7/31 23/33/31 7/8/31
f  9/10/19 22/35/19 10/11/19
f  12/13/32 3/60/32 2/14/32
f  4/16/33 20/26/33 11/12/33
f  6/17/34 16/61/34 14/18/34
f  16/20/35 5/7/35 8/9/35
f  17/22/36 21/27/36 18/23/36
f  19/25/10 18/62/10 20/26/10
f  17/22/11 6/17/11 15/19/11
f  22/28/37 12/32/37 23/29/37
f  1/31/13 3/63/13 12/32/13
f  23/33/38 12/13/38 13/15/38
f  24/34/39 1/64/39 22/35/39
f  11/65/40 20/36/40 8/38/40
f  20/36/41 18/66/41 21/67/41
f  15/37/42 20/36/42 21/67/42
f  15/37/43 14/68/43 8/38/43
f  8/38/44 7/69/44 11/65/44
f  7/69/45 13/70/45 11/65/45
f  13/70/45 9/71/45 11/65/45
f  29/72/46 9/73/46 27/74/46
f  9/73/47 13/41/47 26/40/47
f  27/74/48 9/73/48 26/40/48
f  13/41/49 31/75/49 25/39/49
f  27/42/50 34/53/50 28/43/50
f  9/10/51 29/76/51 28/45/51
f  13/15/52 2/14/52 30/46/52
f  31/48/53 30/77/53 32/49/53
f  25/50/54 32/49/54 33/51/54
f  26/52/55 33/51/55 34/53/55
f  30/78/56 2/2/56 32/79/56
f  2/2/57 24/56/57 33/55/57
f  32/79/58 2/2/58 33/55/58
f  24/56/56 28/80/56 34/54/56

