# File produced by Open Asset Import Library (http://www.assimp.sf.net)
# (assimp v5.3.0)

mtllib mount.mtl

# 104 vertex positions
v -0.0150766782 0.023 0.0363984145
v 1.28372726e-08 0.00600004103 0.0393973514
v 1.28372726e-08 0.023 0.0393973514
v -0.0354019403 0.023 1.15354046e-08
v -0.0363984071 0.023 0.0150767025
v -0.0327070877 0.023 0.0135477204
v -1.15354037e-08 0.0279999301 -0.0354019403
v 0.0135476999 0.023 -0.0327070951
v -1.15354037e-08 0.023 -0.0354019403
v 0.0278580785 0.023 0.0278581213
v 0.0363984145 0.00600004103 0.0150766782
v 0.0363984145 0.023 0.0150766782
v 1.15354037e-08 0.023 0.0354019403
v 0.0135476999 0.0279999301 -0.0327070951
v 0.0250329226 0.023 -0.0250329375
v -0.0150766419 0.023 -0.0363984071
v -0.0278580785 0.00600004103 -0.0278581213
v -0.0278580785 0.023 -0.0278581213
v 0.0327070951 0.023 0.0135476999
v 0.0250329226 0.0279999301 -0.0250329375
v 0.0327070877 0.023 -0.0135477204
v 0.0278581213 0.023 -0.0278580785
v 0.0150766782 0.00600004103 -0.0363983549
v 0.0150766782 0.023 -0.0363983549
v 0.0363984071 0.023 -0.0150767025
v 0.0327070877 0.0279999301 -0.0135477204
v 0.0354019403 0.023 -1.15354029e-08
v 0.0393973514 0.00600004103 -1.28372717e-08
v 0.0393973514 0.023 -1.28372717e-08
v -0.0327070951 0.023 -0.0135476999
v -0.0393973514 0.023 1.28372735e-08
v 0.0354019403 0.0279999301 -1.15354029e-08
v 0.0150767025 0.00600004103 0.0363984071
v 0.0150767025 0.023 0.0363984071
v -0.0135476999 0.023 0.0327070951
v -0.0278581213 0.023 0.0278581399
v 0.0327070951 0.0279999301 0.0135476999
v 0.0250329375 0.023 0.0250329226
v -1.28372726e-08 0.023 -0.0393973514
v -0.0150766419 0.00600004103 -0.0363984071
v 0.0135477204 0.023 0.0327070877
v 0.0250329375 0.0279999301 0.0250329226
v -0.0278581213 0.00600004103 0.0278581399
v 0.0135477204 0.0279999301 0.0327070877
v -0.0363984145 0.00600004103 -0.0150766782
v -0.0363984145 0.023 -0.0150766782
v -0.0135476599 0.023 -0.0327070877
v 1.15354037e-08 0.0279999301 0.0354019403
v -1.28372726e-08 0.00600004103 -0.0393973514
v -0.0135476999 0.0279999301 0.0327070951
v -0.0250329226 0.023 0.0250329375
v 0.0363984071 0.00600004103 -0.0150767025
v -0.0250329226 0.0279999301 0.0250329375
v 0.0278580785 0.00600004103 0.0278581213
v -0.0327070877 0.0279999301 0.0135477204
v -0.0150766782 0.00600004103 0.0363984145
v -0.0354019403 0.0279999301 1.15354046e-08
v 0.0248527694 0.00600004103 0.0599999912
v 0.0414999872 0.00600004103 0.0599999838
v 0.0414999835 0.00600004103 0.0415000133
v -0.0327070951 0.0279999301 -0.0135476999
v -0.0250329375 0.023 -0.0250329226
v -0.0393973514 0.00600004103 1.28372735e-08
v -0.0250329375 0.0279999301 -0.0250329226
v -0.0363984071 0.00600004103 0.0150767025
v -0.0135476599 0.0279999301 -0.0327070877
v 0.0278581213 0.00600004103 -0.0278580785
v -0.056735158 0.00600004103 -0.0235004816
v 0.0414999761 0.00600004103 0.0171898473
v -0.0567352101 0.00600004103 1.84866575e-08
v 0.0414999686 0.00600004103 -1.35223903e-08
v -0.0567352027 0.00600004103 0.0235004593
v 0.0414999612 0.00600004103 -0.0171898734
v -0.0567351915 0.00600004103 0.0567352287
v 0.0414999537 0.00600004103 -0.0414999835
v -0.0567351915 0.00600004103 0.0599999577
v -0.0248527918 0.00600004103 0.0599999465
v 0.0415000096 0.00600004103 -0.059999954
v 0.0248527918 0.00600004103 -0.0599999465
v 1.9550459e-08 0.00600004103 0.0599999987
v -1.9550459e-08 0.00600004103 -0.0599999987
v -0.0248527694 0.00600004103 -0.0599999912
v -0.0567351691 0.00600004103 -0.05999998
v -0.0567351691 0.00600004103 -0.0567351915
v 1.9550459e-08 0 0.0599999987
v -0.056735158 0 -0.0235004816
v 0.0415000096 0 -0.059999954
v 0.0414999835 0 0.0415000133
v -0.0567351691 0 -0.0567351915
v 0.0414999761 0 0.0171898473
v -0.0567351691 0 -0.05999998
v -0.0567351915 0 0.0567352287
v -0.0248527694 0 -0.0599999912
v -0.0567352027 0 0.0235004593
v 0.0248527694 0 0.0599999912
v -0.0567351915 0 0.0599999577
v 0.0414999686 0 -1.35223903e-08
v -1.9550459e-08 0 -0.0599999987
v 0.0414999872 0 0.0599999838
v 0.0414999612 0 -0.0171898734
v 0.0248527918 0 -0.0599999465
v -0.0248527918 0 0.0599999465
v -0.0567352101 0 1.84866575e-08
v 0.0414999537 0 -0.0414999835

# 54 UV coordinates
vt 0.4375 0.5 0
vt 0.5 0.5 0
vt 0.25 0.5 0
vt 0.3125 0.5 0
vt 1 1 0
vt 0.9375 0.5 0
vt 1 0.5 0
vt 0.625 0.5 0
vt 0.6875 0.5 0
vt 0.9375 1 0
vt 0.875 0.5 0
vt 0.0625 0.5 0
vt 0.125 0.5 0
vt 0.875 1 0
vt 0.8125 0.5 0
vt 0.8125 1 0
vt 0.75 0.5 0
vt 0.1875 0.5 0
vt 0.75 1 0
vt 0.5625 0.5 0
vt 0.375 0.5 0
vt 0.6875 1 0
vt 0 0.5 0
vt 0.625 1 0
vt 0.5625 1 0
vt 0.5 1 0
vt 0.4375 1 0
vt 0.375 1 0
vt 0.3125 1 0
vt 0.25 1 0
vt 0.59624809 0.5 0
vt 0.1875 1 0
vt 0.0802944824 0.080294311 0
vt 0.4197056 0.0802943707 0
vt 0.4197056 0.4197056 0
vt 0.125 1 0
vt 0.0625 1 0
vt 0.379760593 0.500000119 0
vt 0.903752029 0.500000119 0
vt 0.120239504 0.5 0
vt 0.341843992 0.471731097 0
vt 0.25 0.49000001 0
vt 0.158155993 0.471731097 0
vt 0.0802943707 0.419705689 0
vt 0.0282689296 0.341843992 0
vt 0.00999992993 0.25 0
vt 0.0282689296 0.158155903 0
vt 0.158155993 0.02826887 0
vt 0.250000089 0.00999999046 0
vt 0.341843992 0.0282689296 0
vt 0.471731097 0.158155903 0
vt 0.49000001 0.25 0
vt 0.471731007 0.341843992 0
vt 0 1 0

# 89 vertex normals
vn -0.382683009 0 0.923879743
vn 3.25841e-07 0 1
vn 0 1 0
vn -1.25303004e-07 1 4.08288549e-14
vn -2.68837994e-07 1 8.75984398e-14
vn 1.48097996e-07 0 -1
vn 0.382683605 0 -0.923879445
vn 1.28752987e-07 0 -1
vn 0.707106411 0 0.707107186
vn 0.923879445 0 0.382683605
vn 0.923879445 0 0.382683814
vn -2.41574014e-07 1 7.87147176e-14
vn 0.382683605 0 -0.923879504
vn 0.707106948 0 -0.70710665
vn -0.382683098 0 -0.923879683
vn -0.707106411 0 -0.707107186
vn -0.707106352 0 -0.707107246
vn -2.63634007e-07 1 8.59027679e-14
vn 0.707106948 0 -0.707106709
vn 0.923879683 0 -0.382683396
vn 0.707106888 0 -0.707106709
vn 0.382683307 0 -0.923879623
vn -4.35048008e-07 1 1.4175648e-13
vn 0.923879564 0 -0.382683396
vn 1 0 -3.25841e-07
vn 3.96773004e-07 1 -1.29284916e-13
vn 0.923879504 0 0.382683814
vn 0.382683605 0 0.923879504
vn 0.382683605 0 0.923879564
vn -2.25666e-07 1 7.35312351e-14
vn 3.28276997e-07 1 -1.06966106e-13
vn 0.707106531 0 0.707107186
vn 5.62120022e-08 0 -1
vn -0.382683188 0 -0.923879802
vn -1.85754999e-07 1 6.05265959e-14
vn -0.923879504 0 0.382683605
vn -0.70710659 0 0.707107067
vn -0.707106769 0 0.707106948
vn 3.98073013e-07 1 -1.29708513e-13
vn -5.3767701e-07 1 1.75197218e-13
vn -0.923879504 0 -0.382683605
vn 2.7195e-08 0 -1
vn -2.58116017e-07 1 8.41047812e-14
vn 4.83148028e-07 1 -1.57429435e-13
vn -0.707106471 0 0.707107127
vn 0.923879683 0 -0.382683307
vn 0.923879564 0 -0.382683307
vn 2.47070005e-07 1 -8.0505535e-14
vn -0.70710659 0 0.707107127
vn -2.41575009e-07 1 7.87150428e-14
vn -0.923879564 0 0.382683605
vn -1 0 3.25841e-07
vn -0.382683098 0 0.923879743
vn -0.923879445 0 -0.382683605
vn 3.62457996e-07 1 -1.18103674e-13
vn -0.707106352 0 -0.707107186
vn -0.707106411 0 -0.707107246
vn -0.923879504 0 0.382683784
vn -3.20173996e-07 1 1.04325816e-13
vn -1.34418997e-07 1 4.37992199e-14
vn 6.79989398e-10 0 1
vn 1.00999998e-07 0 1
vn -1 0 -2.93369027e-07
vn 1 0 1.35882004e-07
vn 1 0 1.98545962e-07
vn 1 0 2.83060984e-07
vn 1 0 3.04673989e-07
vn 1 0 -9.55750039e-08
vn 1 0 -1.26311988e-07
vn -5.91020068e-08 0 -1
vn -9.21519927e-08 0 -1
vn -1 0 4.63345003e-07
vn -1 0 1.63295994e-07
vn -1 0 1.79891998e-07
vn -2.60529873e-08 0 -1
vn -1 0 -5.41190275e-08
vn 1.39003987e-07 0 1
vn 1 0 -4.3663988e-08
vn -6.40569908e-08 0 -1
vn 1.02061989e-07 0 1
vn 1 0 -1.29270177e-08
vn -1.02061989e-07 0 -1
vn -2.46930085e-08 0 1
vn -1 0 -8.69659971e-08
vn 1 0 1.05145034e-07
vn -3.98590004e-07 1 1.29876971e-13
vn 1.99293993e-07 1 -6.49381536e-14
vn 7.97175971e-07 1 -2.59752614e-13
vn 5.19421008e-07 1 -1.69248662e-13

# Mesh 'Cylinder_002-mesh' with 186 faces
g Cylinder_002-mesh
usemtl mount
f  1/1/1 2/2/2 3/2/2
f  4/3/3 5/4/4 6/4/5
f  7/5/6 8/6/7 9/7/8
f  10/8/9 11/9/10 12/9/11
f  13/2/3 1/1/12 3/2/3
f  14/10/13 15/11/14 8/6/7
f  16/12/15 17/13/16 18/13/17
f  19/9/3 10/8/18 12/9/3
f  20/14/19 21/15/20 15/11/14
f  22/11/21 23/6/22 24/6/22
f  15/11/3 25/15/23 22/11/3
f  26/16/24 27/17/25 21/15/20
f  12/9/11 28/17/25 29/17/25
f  30/18/26 31/3/3 4/3/3
f  32/19/25 19/9/27 27/17/25
f  3/2/2 33/20/28 34/20/29
f  35/1/30 36/21/31 1/1/12
f  37/22/27 38/8/32 19/9/27
f  39/23/33 40/12/34 16/12/15
f  41/20/35 10/8/18 38/8/5
f  42/24/32 41/20/28 38/8/32
f  5/4/36 43/21/37 36/21/38
f  27/17/39 25/15/23 21/15/40
f  44/25/28 13/2/2 41/20/28
f  18/13/17 45/18/41 46/18/41
f  47/12/3 39/23/3 16/12/3
f  48/26/2 35/1/1 13/2/2
f  24/6/22 49/7/42 39/7/33
f  30/18/26 18/13/43 46/18/44
f  50/27/1 51/21/45 35/1/1
f  29/17/25 52/15/46 25/15/47
f  51/21/48 5/4/4 36/21/31
f  53/28/49 6/4/36 51/21/45
f  34/20/29 54/8/32 10/8/9
f  13/2/3 34/20/50 41/20/35
f  55/29/51 4/3/52 6/4/36
f  36/21/38 56/1/53 1/1/1
f  9/7/3 24/6/3 39/7/3
f  57/30/52 30/18/54 4/3/52
f  58/20/3 59/31/3 60/8/3
f  19/9/3 29/17/55 27/17/39
f  61/32/41 62/13/56 30/18/54
f  53/33/3 42/34/3 20/35/3
f  46/18/41 63/3/52 31/3/52
f  64/36/57 47/12/15 62/13/56
f  31/3/52 65/4/58 5/4/36
f  62/13/59 16/12/3 18/13/43
f  66/37/15 9/23/8 47/12/15
f  15/11/3 24/6/3 8/6/60
f  25/15/47 67/11/21 22/11/21
f  17/13/3 68/18/3 45/18/3
f  54/8/3 69/9/3 11/9/3
f  45/18/3 70/3/3 63/3/3
f  11/9/3 71/17/3 28/17/3
f  65/4/3 70/3/3 72/4/3
f  52/15/3 71/17/3 73/15/3
f  43/21/3 72/4/3 74/21/3
f  67/11/3 73/15/3 75/11/3
f  74/21/3 76/38/3 77/1/3
f  75/11/3 78/39/3 79/6/3
f  56/1/3 80/2/3 2/2/3
f  40/12/3 81/23/3 82/12/3
f  23/6/3 81/7/3 49/7/3
f  33/20/3 80/2/3 58/20/3
f  82/12/3 83/40/3 84/13/3
f  77/1/61 85/2/62 80/2/62
f  84/13/52 86/18/63 68/18/63
f  75/11/64 87/39/65 78/39/65
f  59/31/25 88/8/66 60/8/67
f  83/40/52 89/13/52 84/13/52
f  60/8/67 90/9/68 69/9/69
f  82/12/70 91/40/71 83/40/71
f  72/4/72 92/21/73 74/21/74
f  81/23/75 93/12/70 82/12/70
f  70/3/76 94/4/52 72/4/72
f  80/2/62 95/20/77 58/20/77
f  74/21/74 96/38/52 76/38/52
f  69/9/69 97/17/78 71/17/78
f  79/6/79 98/7/75 81/7/75
f  58/20/77 99/31/80 59/31/80
f  71/17/78 100/15/78 73/15/81
f  78/39/82 101/6/79 79/6/79
f  76/38/83 102/1/61 77/1/61
f  68/18/63 103/3/84 70/3/76
f  73/15/81 104/11/85 75/11/64
f  1/1/1 56/1/53 2/2/2
f  4/3/3 31/3/3 5/4/4
f  7/5/6 14/10/13 8/6/7
f  10/8/9 54/8/32 11/9/10
f  13/2/3 35/1/30 1/1/12
f  14/10/13 20/14/19 15/11/14
f  16/12/15 40/12/34 17/13/16
f  19/9/3 38/8/5 10/8/18
f  20/14/19 26/16/24 21/15/20
f  22/11/21 67/11/21 23/6/22
f  15/11/3 21/15/40 25/15/23
f  26/16/24 32/19/25 27/17/25
f  12/9/11 11/9/10 28/17/25
f  30/18/26 46/18/44 31/3/3
f  32/19/25 37/22/27 19/9/27
f  3/2/2 2/2/2 33/20/28
f  35/1/30 51/21/48 36/21/31
f  37/22/27 42/24/32 38/8/32
f  39/23/33 49/23/42 40/12/34
f  41/20/35 34/20/50 10/8/18
f  42/24/32 44/25/28 41/20/28
f  5/4/36 65/4/58 43/21/37
f  27/17/39 29/17/55 25/15/23
f  44/25/28 48/26/2 13/2/2
f  18/13/17 17/13/16 45/18/41
f  47/12/3 9/23/3 39/23/3
f  48/26/2 50/27/1 35/1/1
f  24/6/22 23/6/22 49/7/42
f  30/18/26 62/13/59 18/13/43
f  50/27/1 53/28/49 51/21/45
f  29/17/25 28/17/25 52/15/46
f  51/21/48 6/4/5 5/4/4
f  53/28/49 55/29/51 6/4/36
f  34/20/29 33/20/28 54/8/32
f  13/2/3 3/2/3 34/20/50
f  55/29/51 57/30/52 4/3/52
f  36/21/38 43/21/37 56/1/53
f  9/7/3 8/6/60 24/6/3
f  57/30/52 61/32/41 30/18/54
f  60/8/3 54/8/3 33/20/3
f  33/20/3 58/20/3 60/8/3
f  19/9/3 12/9/3 29/17/55
f  61/32/41 64/36/57 62/13/56
f  20/35/3 14/41/86 7/42/3
f  7/42/3 66/43/3 20/35/3
f  66/43/3 64/44/3 20/35/3
f  64/44/3 61/45/3 57/46/3
f  57/46/3 55/47/3 64/44/3
f  55/47/3 53/33/3 64/44/3
f  53/33/3 50/48/87 48/49/3
f  48/49/3 44/50/3 53/33/3
f  44/50/3 42/34/3 53/33/3
f  42/34/3 37/51/88 32/52/3
f  32/52/3 26/53/89 42/34/3
f  26/53/89 20/35/3 42/34/3
f  20/35/3 64/44/3 53/33/3
f  46/18/41 45/18/41 63/3/52
f  64/36/57 66/37/15 47/12/15
f  31/3/52 63/3/52 65/4/58
f  62/13/59 47/12/3 16/12/3
f  66/37/15 7/54/6 9/23/8
f  15/11/3 22/11/3 24/6/3
f  25/15/47 52/15/46 67/11/21
f  17/13/3 84/13/3 68/18/3
f  54/8/3 60/8/3 69/9/3
f  45/18/3 68/18/3 70/3/3
f  11/9/3 69/9/3 71/17/3
f  65/4/3 63/3/3 70/3/3
f  52/15/3 28/17/3 71/17/3
f  43/21/3 65/4/3 72/4/3
f  67/11/3 52/15/3 73/15/3
f  77/1/3 56/1/3 43/21/3
f  43/21/3 74/21/3 77/1/3
f  79/6/3 23/6/3 75/11/3
f  23/6/3 67/11/3 75/11/3
f  56/1/3 77/1/3 80/2/3
f  40/12/3 49/23/3 81/23/3
f  23/6/3 79/6/3 81/7/3
f  33/20/3 2/2/3 80/2/3
f  84/13/3 17/13/3 82/12/3
f  17/13/3 40/12/3 82/12/3
f  77/1/61 102/1/61 85/2/62
f  84/13/52 89/13/52 86/18/63
f  75/11/64 104/11/85 87/39/65
f  59/31/25 99/31/25 88/8/66
f  83/40/52 91/40/52 89/13/52
f  60/8/67 88/8/66 90/9/68
f  82/12/70 93/12/70 91/40/71
f  72/4/72 94/4/52 92/21/73
f  81/23/75 98/23/75 93/12/70
f  70/3/76 103/3/84 94/4/52
f  80/2/62 85/2/62 95/20/77
f  74/21/74 92/21/73 96/38/52
f  69/9/69 90/9/68 97/17/78
f  79/6/79 101/6/79 98/7/75
f  58/20/77 95/20/77 99/31/80
f  71/17/78 97/17/78 100/15/78
f  78/39/82 87/39/82 101/6/79
f  76/38/83 96/38/83 102/1/61
f  68/18/63 86/18/63 103/3/84
f  73/15/81 100/15/78 104/11/85

